# xmcd
#
# Track frame offsets: 
#        150
#        15452
#        43399
#
# Disc length: 809 seconds
#
# Revision: 1
# Processed by: cddbd v1.5.2PL0 Copyright (c) Steve Scherf et al.
# Submitted via: ExactAudioCopy v1.0b3
#
DISCID=1e032703
DTITLE=Norell and Napoli - Mein Herz Spielt Verrückt - Ti Amo Amore
DYEAR=1998
DGENRE=Schlager
TTITLE0=Mein Herz Spielt Verrückt - Ti Amo Amore (Radio Edit)
TTITLE1=Mein Herz Spielt Verrückt - Ti Amo Amore (Extended Version)
TTITLE2=Mein Herz Spielt Verrückt - Ti Amo Amore (Karaoke)
EXTD=
EXTT0=
EXTT1=
EXTT2=
PLAYORDER=
